<svg width="320" height="320" xmlns="http://www.w3.org/2000/svg" xmlns:xlink="http://www.w3.org/1999/xlink">
 <style type="text/css">.st0{clip-path:url(#SVGID_2_);}</style>
 <g>
  <title>background</title>
  <rect fill="none" id="canvas_background" height="322" width="322" y="-1" x="-1"/>
 </g>
 <g>
  <title>Layer 1</title>
  <g fill="white" id="svg_1">
   <defs>
    <rect height="303.9" width="278.8" y="6.1" x="20.4" id="SVGID_1_"/>
   </defs>
   <clipPath id="SVGID_2_">
    <use id="svg_2" xlink:href="#SVGID_1_"/>
   </clipPath>
   <path id="svg_3" d="m283.8,61c-1.9,4.1 -6.7,5.8 -10.8,3.9c-4.1,-1.9 -5.8,-6.7 -3.9,-10.8c1.9,-4.1 6.7,-5.8 10.8,-3.9c4.1,1.9 5.8,6.7 3.9,10.8m-82.2,-27.6c-2.3,4.9 -0.2,10.7 4.7,13l70.7,33c4.9,2.3 10.7,0.2 13,-4.7l8.2,-17.7c2.3,-4.9 0.2,-10.7 -4.7,-13l-70.7,-33c-4.9,-2.3 -10.7,-0.2 -13,4.7l-8.2,17.7zm-75.3,142.1c-4,8.6 -0.1,20 8.4,24c8.7,4.1 19.7,-0.1 23.8,-9l17.1,-36.8c3.5,8.9 15.2,15.3 27.2,9.9c6,9.2 19.2,9.9 25.8,4.6c16.6,11.7 30,4.2 38.7,-14.5c0.5,-1 2.2,-4.9 2.7,-5.9c10.7,-22.8 1.8,-33.7 7.1,-52.2c1.3,-4.6 -0.9,-9.5 -5.3,-11.5l-63.2,-29.5c-6.8,-3.2 -15,-2.3 -21,3c-9.7,8.4 -34.4,26.7 -46.9,26.3c-8,-0.3 -14.4,2.9 -17.6,9.7c-5.9,12.6 3,27.3 17.1,27.7c3.7,0.1 7.6,-0.2 11.6,-0.9l-25.5,55.1z" class="st0"/>
   <path id="svg_4" d="m287.5,294.7c7.7,-2.8 -14.3,-52.9 -14.3,-52.9c-7.2,6.1 -54.6,15.6 -118.3,15.6s-110.9,-10.4 -118.3,-15.5c0,0 -23.2,49.3 -14.3,52.9c54.6,21.6 205.4,21.6 265.2,-0.1" class="st0"/>
   <path id="svg_5" d="m154.9,243.2c63.7,0 115.3,-7 115.3,-15.6s-51.6,-15.6 -115.3,-15.6s-115.3,7 -115.3,15.6s51.6,15.6 115.3,15.6" class="st0"/>
  </g>
 </g>
</svg>