<?xml version="1.0" encoding="utf-8"?>
<!-- Generator: Adobe Illustrator 23.0.6, SVG Export Plug-In . SVG Version: 6.00 Build 0)  -->
<svg version="1.1" id="Layer_1" xmlns="http://www.w3.org/2000/svg" xmlns:xlink="http://www.w3.org/1999/xlink" x="0px" y="0px"
	 viewBox="0 0 320 320" style="enable-background:new 0 0 320 320;" xml:space="preserve">
<style type="text/css">
	.st0{clip-path:url(#SVGID_2_);}
</style>
<g>
	<defs>
		<rect id="SVGID_1_" x="20.4" y="6.1" width="278.8" height="303.9"/>
	</defs>
	<clipPath id="SVGID_2_">
		<use xlink:href="#SVGID_1_"  style="overflow:visible;"/>
	</clipPath>
	<path class="st0" d="M283.8,61c-1.9,4.1-6.7,5.8-10.8,3.9c-4.1-1.9-5.8-6.7-3.9-10.8c1.9-4.1,6.7-5.8,10.8-3.9
		C284,52.1,285.7,56.9,283.8,61 M201.6,33.4c-2.3,4.9-0.2,10.7,4.7,13l70.7,33c4.9,2.3,10.7,0.2,13-4.7l8.2-17.7
		c2.3-4.9,0.2-10.7-4.7-13l-70.7-33c-4.9-2.3-10.7-0.2-13,4.7L201.6,33.4z M126.3,175.5c-4,8.6-0.1,20,8.4,24
		c8.7,4.1,19.7-0.1,23.8-9l17.1-36.8c3.5,8.9,15.2,15.3,27.2,9.9c6,9.2,19.2,9.9,25.8,4.6c16.6,11.7,30,4.2,38.7-14.5
		c0.5-1,2.2-4.9,2.7-5.9c10.7-22.8,1.8-33.7,7.1-52.2c1.3-4.6-0.9-9.5-5.3-11.5l-63.2-29.5c-6.8-3.2-15-2.3-21,3
		c-9.7,8.4-34.4,26.7-46.9,26.3c-8-0.3-14.4,2.9-17.6,9.7c-5.9,12.6,3,27.3,17.1,27.7c3.7,0.1,7.6-0.2,11.6-0.9L126.3,175.5z"/>
	<path class="st0" d="M287.5,294.7c7.7-2.8-14.3-52.9-14.3-52.9c-7.2,6.1-54.6,15.6-118.3,15.6S44,247,36.6,241.9
		c0,0-23.2,49.3-14.3,52.9C76.9,316.4,227.7,316.4,287.5,294.7"/>
	<path class="st0" d="M154.9,243.2c63.7,0,115.3-7,115.3-15.6S218.6,212,154.9,212s-115.3,7-115.3,15.6S91.2,243.2,154.9,243.2"/>
</g>
</svg>
